<svg width="34" height="32" viewBox="0 0 34 32" fill="none" xmlns="http://www.w3.org/2000/svg">
<g id="edit_FILL0_wght400_GRAD0_opsz48 1">
<path id="Vector" d="M6.375 25.9997H7.93333L23.6229 11.2331L22.0646 9.76641L6.375 24.5331V25.9997ZM28.1208 9.79974L23.5875 5.53307L25.075 4.13307C25.4764 3.7553 25.9722 3.56641 26.5625 3.56641C27.1528 3.56641 27.6486 3.7553 28.05 4.13307L29.6083 5.59974C30.0097 5.97752 30.2104 6.44418 30.2104 6.99974C30.2104 7.5553 30.0097 8.02196 29.6083 8.39974L28.1208 9.79974ZM26.6333 11.1997L8.78333 27.9997H4.25V23.7331L22.1 6.93307L26.6333 11.1997ZM22.8438 10.4997L22.0646 9.76641L23.6229 11.2331L22.8438 10.4997Z" fill="#0990AE"/>
</g>
</svg>
